<svg width="92" height="40" viewBox="0 0 92 40" fill="none" xmlns="http://www.w3.org/2000/svg">
<path d="M12.08 8.88C6.96 8.88 5 12.76 5 12.76H4.92C4.92 12.76 4.96 12.36 4.96 11.88C4.96 11.88 0 9.08 0 10.24V38.2C0 39.4 0.64 40 1.8 40H3.64C4.84 40 5.44 39.4 5.44 38.2V30.44C5.44 29.32 5.32 28.56 5.32 28.56H5.4C5.4 28.56 7.16 31.92 11.72 31.92C17.48 31.92 21.8 27.4 21.8 20.4C21.88 13.56 18.04 8.88 12.08 8.88ZM10.8 27.28C7.24 27.28 5.32 23.92 5.32 20.52C5.32 15.64 8.04 13.56 10.88 13.56C14.08 13.56 16.32 16.28 16.32 20.48C16.32 24.84 13.8 27.28 10.8 27.28Z" fill="#5B6771"/>
<path d="M78.44 17.32H79.36V16.8C79.36 13.92 77.52 12.92 75.28 12.92C73.44 12.92 71.76 13.6 70.72 14.16C69.64 14.64 68.84 14.48 68.32 13.44L67.88 12.64C67.36 11.64 67.52 10.8 68.56 10.24C70 9.52 72.48 8.44 75.76 8.44C81.44 8.44 84.84 11.64 84.84 17.2V29.16C84.84 30.36 79.88 27.36 79.88 27.36C79.88 27.36 77.72 31.52 72.88 31.52C68.88 31.52 65.6 28.92 65.6 24.92C65.6 18.4 73.56 17.32 78.44 17.32ZM74.36 27.24C77.44 27.24 79.4 24.12 79.4 21.48V20.64H78.48C75.72 20.64 71 21.08 71 24.36C71.04 25.84 72.16 27.24 74.36 27.24Z" fill="#5B6771"/>
<path d="M33.56 8.40002C30.28 8.40002 27.8 9.48002 26.36 10.2C25.32 10.76 25.16 11.64 25.68 12.6L26.12 13.44C26.64 14.48 27.44 14.64 28.52 14.16C29.56 13.6 31.24 12.92 33.08 12.92C35.32 12.92 37.16 13.92 37.16 16.8V17.32H36.24C31.32 17.32 23.4 18.4 23.4 24.84C23.4 28.84 26.68 31.44 30.68 31.44C35.56 31.44 37.6 27.28 37.6 27.28H37.68C37.68 27.28 42.64 30.28 42.64 29.08V17.16C42.64 11.6 39.24 8.40002 33.56 8.40002ZM37.24 21.48C37.24 24.16 35.24 27.24 32.2 27.24C30 27.24 28.88 25.8 28.88 24.36C28.88 21.08 33.6 20.64 36.32 20.64H37.24V21.48Z" fill="#5B6771"/>
<path d="M82 1.27996C77.92 -0.400042 73.4 -0.400042 69.24 1.27996C64.88 3.03996 61.3599 6.51996 59.5599 10.84L54.1599 23.92L48.0399 9.15996C47.8399 8.71996 47.3999 8.39996 46.9199 8.39996H44.7599H43.5999C42.7199 8.39996 42.1599 9.27996 42.4799 10.08L51.1999 31L50.9999 31.48C50.1599 33.52 48.0799 34.64 45.9999 34.32C45.3999 34.24 44.8399 34.56 44.6399 35.08L43.5599 37.92C43.2799 38.64 43.6799 39.4 44.4399 39.6C45.1999 39.8 45.9999 39.88 46.7599 39.88C50.7199 39.88 54.4399 37.52 56.0799 33.6L64.64 12.92C64.64 12.92 64.68 12.84 64.72 12.72C64.88 12.36 65.0799 11.96 65.2799 11.6C66.9999 8.35996 72.4 0.199958 82 1.27996Z" fill="#00A9E0"/>
<path d="M64.7199 12.6801C64.6799 12.8001 64.6399 12.8801 64.6399 12.8801C64.6399 12.8401 64.6799 12.7601 64.7199 12.6801Z" fill="#5B6771"/>
<path d="M82.6 2.16002C82.52 2.12002 82.44 2.08002 82.36 2.08002L82.28 2.04002C81.76 2.00002 81.2 1.96002 80.68 1.96002C76.64 1.96002 73.48 3.64002 71.04 5.72002C70.68 6.00002 71.04 6.56002 71.44 6.40002C71.44 6.40002 71.44 6.40002 71.48 6.40002C72.96 5.80002 74.48 5.52002 76 5.52002C77.6 5.52002 79.2 5.84002 80.68 6.52002C83.76 7.88002 86.04 10.36 87.16 13.48C87.48 14.4 88.36 15.04 89.36 15.04C89.48 15.04 89.6 15.04 89.72 15C90.4 14.88 91 14.48 91.36 13.88C91.72 13.28 91.8 12.52 91.56 11.88C90.04 7.48002 86.84 4.04002 82.6 2.16002Z" fill="#6CC24A"/>
<path d="M87.5599 0H89.2399V0.32H88.5599V2.08H88.1999V0.32H87.5599V0Z" fill="#5B6771"/>
<path d="M89.6 0H90.12L90.68 1.64L91.24 0H91.76V2.08H91.4V0.48L90.84 2.08H90.52L89.96 0.48V2.08H89.6V0Z" fill="#5B6771"/>
</svg>
