<?xml version="1.0" encoding="utf-8"?>
<!-- Generator: Adobe Illustrator 26.4.1, SVG Export Plug-In . SVG Version: 6.00 Build 0)  -->
<svg version="1.1" id="Layer_1" xmlns="http://www.w3.org/2000/svg" xmlns:xlink="http://www.w3.org/1999/xlink" x="0px" y="0px"
	 viewBox="0 0 792 612" style="enable-background:new 0 0 792 612;" xml:space="preserve">
<style type="text/css">
	.st0{fill:#1B1C4A;}
</style>
<g>
	<path class="st0" d="M79.62,303.35c0-10.2,0-20.41,0-30.61c0-1.1-0.03-2.21,0.06-3.31c0.19-2.16,1.22-3.34,3.35-3.42
		c3.59-0.13,7.19-0.12,10.79-0.02c1.87,0.06,2.36,0.67,2.52,2.58c0.09,1.1,0.04,2.2,0.04,3.31c-0.01,17.24-0.06,34.47,0.01,51.71
		c0.02,4.11,0.59,8.21,0.72,12.32c0.11,3.76-0.76,4.52-4.62,4.58c-2.49,0.03-4.98,0.04-7.47,0c-4.52-0.07-5.35-0.88-5.35-5.28
		c-0.01-10.62,0-21.23,0-31.85C79.66,303.35,79.64,303.35,79.62,303.35z"/>
	<path class="st0" d="M149.6,296.47c-2.13,2.68-2.08,5.8-2.15,8.72c-0.1,4.24,0.41,8.5,0.5,12.75c0.14,6.49,0.2,12.97,0.19,19.46
		c0,2.4-0.6,3-2.89,3.06c-3.6,0.09-7.2,0.09-10.8,0.02c-2.21-0.04-2.95-0.65-3.49-2.77c-0.24-0.91-0.24-1.9-0.24-2.86
		c-0.04-20.7-0.07-41.4-0.08-62.11c0-6.01,0.82-6.83,7.03-6.82c9.66,0.02,7.93-0.65,14.38,5.95c9.65,9.88,19.3,19.76,28.99,29.6
		c2.32,2.36,4.83,4.52,7.9,5.9c2.67,1.2,3.78,0.74,4.53-2.06c0.31-1.17,0.31-2.45,0.31-3.68c0.06-9.25,0.08-18.49,0.11-27.74
		c0-0.83-0.02-1.66,0.02-2.48c0.18-3.78,1.55-5.26,5.28-5.44c2.49-0.12,4.99-0.11,7.47-0.01c3.33,0.13,4.42,1.23,4.51,4.57
		c0.1,3.45,0.03,6.9,0.03,10.35c0,6.49,0.07,12.97-0.04,19.46c-0.1,5.91-0.59,11.81-0.57,17.72c0.01,5.22,0.49,10.43,0.75,15.65
		c0.05,0.96,0.05,1.93,0.04,2.9c-0.04,3.49-0.36,3.85-3.73,3.9c-3.05,0.05-6.1-0.06-9.14,0.05c-2.24,0.08-4.02-0.69-5.57-2.24
		c-12.02-12.02-24.1-24-36.07-36.07c-1.73-1.75-3.08-3.89-5.35-5.06C150.96,296.85,150.3,296.71,149.6,296.47z"/>
	<path class="st0" d="M301.08,300.5c1.8,0,3.6-0.05,5.4,0.01c5.93,0.2,11.86,0.42,17.78,0.68c2.18,0.1,2.94,1.09,2.68,3.28
		c-1.06,9.04-4.65,16.87-10.15,24.05c-3.59,4.68-8.06,7.36-13.37,9.38c-5.12,1.95-10.34,2.98-15.69,3.17
		c-6.81,0.25-13.32-1.74-19.76-3.79c-1.7-0.55-3.32-1.38-5.02-1.94c-2.26-0.75-4.14-1.85-5.78-3.77c-2.33-2.72-5.12-5.04-7.72-7.53
		c-0.4-0.38-0.93-0.72-1.16-1.19c-3.41-6.91-7.28-13.73-6.77-21.85c0.26-4.19,0.91-8.37,1.66-12.49c0.46-2.49,1.81-4.69,3.44-6.65
		c0.36-0.43,0.79-0.81,1.07-1.29c4.28-7.21,10.78-11.38,18.25-14.47c3.25-1.35,6.41-2.35,9.96-2.36c3.57-0.02,7.14-0.81,10.7-0.76
		c4.96,0.06,9.98,0.16,14.83,1.05c4.87,0.89,9.51,2.89,13.31,6.39c1.88,1.73,2.09,2.6,0.55,4.72c-1.81,2.48-3.91,4.74-5.88,7.1
		c-1.27,1.52-2.87,1.62-4.52,0.9c-1.52-0.66-2.97-1.5-4.46-2.26c-5.57-2.86-11.29-3.67-17.59-2.87c-5.6,0.71-10.31,2.63-14.66,6.12
		c-5.41,4.36-8.32,9.83-8.67,16.96c-0.31,6.34,1.61,11.74,5.73,16.22c3.38,3.67,7.85,5.66,12.63,6.82c9.27,2.23,16.85,0.65,25.38-3
		c1.08-0.47,2.1-1.4,2.83-2.36c1.1-1.44,2.14-3.69,1.55-5.28c-0.54-1.48-2.03-1.2-3.26-1.21c-5.4-0.01-10.81,0.03-16.21-0.02
		c-3-0.02-2.94-0.2-3.94-3.19c-0.89-2.66,0.16-5.01,0.71-7.42c0.29-1.27,1.66-1.29,2.8-1.28c3.6,0.03,7.2,0.06,10.81,0.09
		c0.83,0.01,1.66,0,2.49,0C301.08,300.47,301.08,300.48,301.08,300.5z"/>
	<path class="st0" d="M437.59,339.05c-0.62,0.26-0.98,0.54-1.36,0.56c-5.09,0.28-10.21,0.36-15.28,0.84
		c-4.09,0.38-7.25-1.15-10.08-3.8c-4.54-4.24-9.2-8.37-13.58-12.77c-3.44-3.45-7.39-5.1-12.22-4.94c-2.22,0.07-4.43-0.1-6.65-0.04
		c-3.8,0.11-5.61,1.84-5.76,5.56c-0.08,1.93-0.4,4.02,0.2,5.76c0.89,2.59-0.06,4.9-0.29,7.3c-0.18,1.89-1.37,2.8-3.42,2.87
		c-3.19,0.12-6.38,0.16-9.56,0.09c-2.09-0.04-2.64-0.61-2.82-2.75c-0.29-3.56-0.65-7.12-0.67-10.69c-0.07-17.96,0-35.92-0.08-53.88
		c-0.02-5.15,0.69-7.22,7.34-7.26c10.95-0.07,21.9-0.1,32.85,0.02c4.41,0.05,8.85,0.24,13.2,0.89c3.94,0.6,7.64,2.13,10.98,4.52
		c7.48,5.34,11.71,12.27,11.37,21.65c-0.04,0.97-0.1,1.94-0.05,2.9c0.32,5.58-1.83,10.13-5.67,14.06c-1.73,1.77-3.26,3.74-4.79,5.68
		c-1.72,2.19-1.91,3.79-0.2,5.97c2.29,2.92,4.75,5.75,7.41,8.34c2.56,2.49,5.49,4.59,8.18,6.96
		C437.15,337.38,437.26,338.29,437.59,339.05z M373.41,282.63c0,4.82,0.15,9.36-0.05,13.89c-0.18,4.1,2.13,6.94,6.89,6.7
		c3.32-0.17,6.69-0.31,9.97,0.13c4.57,0.61,9.05-0.26,13.56-0.38c2.55-0.07,5.13-0.95,7.6-1.77c2.9-0.96,4.46-3.14,4.56-6.24
		c0.03-0.97,0-1.93,0.05-2.9c0.24-5.1-2.87-9.52-8.55-10.46c-3.11-0.52-6.36-0.34-9.43-1c-6.37-1.37-12.65-0.03-18.96,0.3
		C377.22,280.99,375.43,281.98,373.41,282.63z"/>
	<path class="st0" d="M466.43,303.35c0-10.2,0-20.41,0-30.61c0-1.1-0.03-2.21,0.06-3.31c0.19-2.16,1.22-3.34,3.35-3.42
		c3.59-0.13,7.19-0.12,10.79-0.02c1.87,0.06,2.36,0.67,2.52,2.58c0.09,1.1,0.04,2.2,0.04,3.31c-0.01,17.24-0.06,34.47,0.01,51.71
		c0.02,4.11,0.59,8.21,0.72,12.32c0.11,3.76-0.76,4.52-4.62,4.58c-2.49,0.03-4.98,0.04-7.47,0c-4.52-0.07-5.35-0.88-5.35-5.28
		c-0.01-10.62,0-21.23,0-31.85C466.47,303.35,466.45,303.35,466.43,303.35z"/>
	<path class="st0" d="M517.85,266.78c1.66-0.33,3.1-0.86,4.54-0.87c13.58-0.04,27.16-0.07,40.73,0.1c3.27,0.04,6.58,0.59,9.79,1.28
		c8.48,1.83,14.37,7.33,19.11,14.19c4.51,6.52,6.68,13.79,6.4,21.74c-0.28,8.22-1.88,16.11-6.63,23.03
		c-1.38,2.02-3.09,3.98-5.07,5.39c-3.23,2.31-6.68,4.42-10.27,6.14c-4.1,1.97-8.46,2.7-13.17,2.16c-3.92-0.45-7.97,0.19-11.96,0.34
		c-0.83,0.03-1.66,0.09-2.49,0.09c-8.59,0.03-17.18-0.09-25.77,0.14c-4.52,0.12-5.43-1.7-5.4-5.27c0.11-15.19,0.09-30.38,0-45.57
		c-0.03-4.94-0.51-9.89-0.56-14.83C517.09,272.26,517.57,269.69,517.85,266.78z M551.45,326.62c7.42,0.03,12.77-0.97,17.5-2.73
		c3.11-1.16,6.18-2.45,8.42-5.07c3.66-4.29,5.19-9.54,5.04-14.89c-0.17-5.9-1.91-11.62-5.58-16.54c-2.66-3.56-5.94-6.11-10.5-6.61
		c-3.01-0.33-6.03-0.58-9.04-0.87c-2.19-0.21-4.38-0.61-6.56-0.58c-2.47,0.03-4.94,0.38-7.39,0.71c-1.76,0.24-3.55,0.54-5.24,1.07
		c-2.09,0.65-3.65,1.94-3.91,4.32c-0.13,1.22-0.45,2.43-0.45,3.65c-0.06,8.98-0.06,17.96-0.08,26.94c0,1.1-0.04,2.21,0.03,3.31
		c0.25,3.77,2.5,6,6.25,6.31C543.77,325.95,547.61,326.29,551.45,326.62z"/>
	<path class="st0" d="M612.82,272.44c0-1.17-0.07-2.35,0.02-3.52c0.06-0.85,0.18-1.75,0.55-2.49c0.28-0.55,0.97-1.22,1.51-1.25
		c1.93-0.1,3.9-0.13,5.81,0.15c1.9,0.27,2.23,0.88,2.5,2.82c0.46,3.34,0.65,6.69-0.03,10.02c-0.39,1.91-0.55,2.02-2.46,2.06
		c-1.4,0.02-2.81,0.05-4.21-0.03c-2.22-0.13-3.56-1.49-3.69-3.75c-0.07-1.33-0.01-2.66-0.01-3.99
		C612.81,272.44,612.81,272.44,612.82,272.44z"/>
	<path class="st0" d="M638.45,328.32c1.6-3.74,4.2-6.74,7.55-9.04c5.31,2.04,10.04,3.83,14.76,5.69c6.59,2.59,13.5,2.83,20.38,2.11
		c4.35-0.45,8.66-1.79,11.92-4.99c3.79-3.72,3.2-8.83-1.41-11.48c-2.75-1.58-5.78-2.48-9.03-2.49c-2.36-0.01-4.72,0.12-7.06-0.07
		c-3.97-0.32-7.93-0.8-11.88-1.29c-2.59-0.32-5.23-0.52-7.72-1.21c-5.78-1.6-10.94-4.07-14.61-9.07c-5.12-6.96-2.65-16.4,1.86-21.68
		c6.3-7.39,14.64-9.97,23.99-10.75c3.02-0.25,6.04-0.69,9.05-0.6c9,0.25,17.74,2.01,26.22,4.85c3.82,1.28,4.62,3.03,3.5,6.82
		c-0.34,1.14-0.71,2.32-1.34,3.32c-2.26,3.59-3.75,3.65-6.72,2.59c-4.24-1.51-8.62-2.81-13.05-3.62c-8.02-1.48-15.96-0.8-23.51,2.37
		c-2.7,1.13-5.14,2.82-4.91,6.21c0.23,3.42,2.26,5.7,5.45,6.84c4.54,1.63,9.35,2.14,14.16,2.36c2.77,0.13,5.55-0.08,8.31,0.04
		c6.15,0.24,12,1.69,17.34,4.67c6.82,3.82,10.36,11.41,9.39,18.62c-0.44,3.24-0.81,6.64-3.42,9.15c-1.45,1.39-3.04,2.66-4.62,3.91
		c-0.74,0.59-1.82,0.85-2.39,1.53c-2.79,3.38-6.9,4.17-10.85,5.32c-4.54,1.32-9.17,1.8-13.89,1.58c-4.81-0.23-9.64,0.44-14.44-0.72
		c-6.83-1.65-13.64-3.27-19.8-6.69c-0.95-0.53-2.03-1-2.68-1.79C638.49,330.2,638.17,329,638.45,328.32L638.45,328.32z"/>
</g>
<g>
	<path class="st0" d="M202.03,222.58c-0.78-3.89-4.14-7.09-8-7.62c-1.72-0.25-3.27-0.22-4.75,0.09c-0.7,0.15-1.43,0.39-2.26,0.74
		c-0.9,0.41-1.72,0.96-2.68,1.68c-1.43,1.12-2.54,3.05-2.91,5.02c-0.34,1.74-0.35,3.21-0.03,4.64c0.1,0.43,0.23,0.86,0.4,1.33
		c0.76,1.91,1.77,3.29,3.38,4.62c1.65,1.34,3.82,2.04,6.19,2.04c0.87,0,1.77-0.1,2.68-0.29c1.11-0.23,2.14-0.58,3.05-1.03
		c1.96-0.94,3.53-3.08,4.29-4.64c0.86-1.82,1.12-4.16,0.7-6.27L202.03,222.58z M197.5,227.11c-0.61,1.4-1.95,3.15-3.49,3.72
		c-0.27,0.11-0.54,0.2-0.82,0.26c-1.42,0.3-2.84,0.08-4.76-0.72c-1.46-0.62-2.36-1.96-2.86-4.21c-0.21-0.97-0.4-1.81-0.15-2.65
		l0-0.01c0.18-0.64,0.57-1.16,0.97-1.72c0.11-0.15,0.23-0.31,0.35-0.48c0.49-0.77,1.11-1.34,1.91-1.74
		c0.56-0.27,1.29-0.51,1.95-0.65c0.1-0.02,0.19-0.03,0.28-0.04c0.11-0.02,0.22-0.03,0.34-0.06c0.22-0.05,0.48-0.06,0.76-0.06
		c0.33,0,0.67,0.03,0.95,0.06c0.58,0.05,1.08,0.29,1.55,0.54c1.26,0.67,2.2,1.8,2.87,2.68c0.26,0.4,0.44,0.85,0.54,1.37
		C198.13,224.51,197.98,225.91,197.5,227.11z"/>
	<path class="st0" d="M226.04,219.05c-0.02-0.11-0.03-0.23-0.05-0.35c-0.02-0.14-0.03-0.29-0.06-0.44
		c-0.13-0.74-0.31-1.48-0.49-2.19c-0.18-0.7-0.36-1.42-0.48-2.12c-0.02-0.09-0.02-0.18-0.03-0.27c-0.01-0.11-0.02-0.22-0.04-0.33
		c-0.09-0.63-0.1-1.23-0.1-1.87c0-0.35-0.01-0.7-0.03-1.06l-0.04-0.23c-0.21-1.2-1.38-1.11-2.08-1.05l-0.28,0.02
		c-0.12,0.01-0.24,0.01-0.36,0.01c-0.23,0-0.46,0.01-0.67,0.04c-0.52,0.09-0.86,0.34-1,0.7c-0.32,0.55-0.19,1.31-0.09,1.87
		l0.06,0.36c0.1,0.55,0.25,1.1,0.39,1.63c0.11,0.41,0.23,0.83,0.32,1.26c0.34,1.31,0.62,2.62,0.83,3.78l0.34,1.91
		c0.15,1.28,0.42,3.68-0.83,4.56c-0.48,0.33-1.06,0.56-1.61,0.66c-0.98,0.18-1.9,0.01-2.53-0.46c-1.46-1.11-1.7-2.41-2.07-4.39
		c-0.09-0.47-0.19-0.94-0.3-1.42c-0.1-0.47-0.21-0.95-0.3-1.43c-0.1-0.53-0.14-1.06-0.18-1.58c-0.03-0.44-0.07-0.88-0.13-1.29
		c-0.05-0.4-0.05-0.8-0.06-1.2c-0.01-0.47-0.01-0.96-0.09-1.45c-0.01-0.06-0.02-0.12-0.02-0.19c-0.01-0.11-0.02-0.23-0.05-0.35
		c-0.08-0.42-0.21-0.73-0.4-0.95c-0.51-0.58-1.36-0.41-1.65-0.36c-0.15,0.03-0.31,0.07-0.46,0.1c-0.13,0.03-0.26,0.06-0.46,0.09
		c-0.05,0-0.1,0-0.14,0.01c-0.1,0.01-0.21,0.01-0.31,0c-0.19,0-0.38,0-0.55,0.03c-0.34,0.06-0.6,0.23-0.75,0.44
		c-0.3,0.33-0.4,0.8-0.29,1.39c0.07,0.34,0.2,0.69,0.32,1c0.09,0.23,0.18,0.44,0.22,0.64c0.38,1.46,0.69,2.81,0.92,4.01
		c0.11,0.56,0.21,1.1,0.28,1.64c0.06,0.5,0.15,0.96,0.24,1.45c0.33,1.72,0.73,3.12,1.24,4.3l0.09,0.18c0.34,0.8,0.66,1.55,1.64,2.18
		c0.7,0.45,1.54,0.94,2.43,1.17c0.51,0.14,1.06,0.22,1.65,0.22c0.52,0,1.09-0.06,1.69-0.17c0.78-0.14,1.61-0.38,2.62-0.76
		c1.87-0.73,3.23-2.12,3.71-3.83l0.11-0.42c0.21-0.8,0.4-1.56,0.23-2.53C226.29,221.02,226.12,220.08,226.04,219.05z M224.31,210.27
		L224.31,210.27L224.31,210.27L224.31,210.27z"/>
	<path class="st0" d="M246.75,207.09c0-0.24,0-0.5-0.03-0.71c-0.15-1.01-0.82-1.16-1.36-1.11c-0.57,0.06-1.11,0.11-1.68,0.19
		c-0.35,0.05-0.72,0.12-1.09,0.18c-0.35,0.06-0.71,0.12-1.08,0.18c-0.42,0.06-0.84,0.13-1.29,0.17c-0.15,0.02-0.29,0.04-0.43,0.05
		c-0.16,0.02-0.32,0.03-0.48,0.06c-0.48,0.08-0.97,0.18-1.46,0.29l-0.64,0.14c-0.93,0.21-1.77,0.35-2.77,0.51l-0.34,0.06
		c-0.44,0.07-0.88,0.23-1.06,0.87c-0.07,0.22-0.04,0.42-0.01,0.6c0.04,0.26,0.14,0.55,0.22,0.79l0.07,0.21
		c0.25,1.05,0.79,1.44,1.74,1.28c0.28-0.04,0.6-0.13,0.95-0.25c0.15-0.04,0.32-0.09,0.49-0.15c0.26-0.08,0.55-0.18,0.81-0.22
		c0.3-0.05,0.68-0.06,0.86,0.2c0.14,0.15,0.2,0.45,0.24,0.7c0.05,0.29,0.06,0.61,0.08,0.91c0.02,0.3,0.03,0.58,0.07,0.8
		c0.16,1,0.35,1.97,0.53,2.93c0.18,0.92,0.35,1.83,0.5,2.74c0.11,0.7,0.17,1.44,0.22,2.17c0.05,0.73,0.11,1.49,0.22,2.2
		c0.07,0.44,0.17,0.87,0.27,1.26c0.03,0.09,0.05,0.2,0.07,0.31c0.08,0.43,0.19,1.02,0.84,1.25c0.09,0.01,0.18,0.02,0.27,0.02
		c0.07,0,0.14-0.01,0.2-0.02c0.34-0.05,0.74-0.22,1.03-0.34l0.22-0.07c0.27-0.04,0.62-0.01,0.93-0.05c0.14-0.02,0.29-0.07,0.43-0.14
		c0.84-0.38,0.7-1.28,0.63-1.71l-0.09-0.58c-0.12-0.79-0.29-1.53-0.47-2.31c-0.17-0.77-0.36-1.57-0.49-2.42
		c-0.13-0.73-0.26-1.47-0.4-2.22c-0.21-1.13-0.42-2.27-0.6-3.42c-0.03-0.22-0.06-0.43-0.09-0.65c-0.03-0.23-0.06-0.47-0.1-0.72
		c-0.03-0.18-0.08-0.37-0.14-0.57c-0.05-0.17-0.1-0.34-0.13-0.51c-0.01-0.07,0-0.18,0-0.25c0.03-0.2,0.39-0.36,1-0.46
		c0.21-0.03,0.41-0.05,0.59-0.06c0.18-0.01,0.33-0.02,0.43-0.04c0.3-0.01,0.59-0.06,0.86-0.1c0.68-0.1,1.45-0.39,1.43-1.66l0-0.01
		C246.74,207.33,246.75,207.21,246.75,207.09z"/>
	<path class="st0" d="M262.82,214.58c-0.28-0.6-0.86-0.91-1.51-0.83c-0.22,0.03-0.41,0.12-0.6,0.2l-0.14,0.07
		c-0.3,0.2-0.67,0.33-1.15,0.39c-0.32,0.04-0.65,0.06-0.98,0.08c-0.37,0.02-0.74,0.04-1.11,0.09c-0.3,0.04-0.6,0.08-0.9,0.2
		c-0.85,0.29-1.25,1.12-1.09,2.26c0.03,0.23,0.1,0.46,0.16,0.67c0.2,0.77,0.63,1.15,1.29,1.15c0.09,0,0.19-0.01,0.29-0.02
		c0.24-0.03,0.49-0.1,0.75-0.17c0.18-0.05,0.36-0.1,0.53-0.13c1.01-0.17,2.05-0.35,3.06-0.49l0.52-0.07
		c0.32-0.04,1.29-0.18,1.3-1.25c0.01-0.2-0.02-0.43-0.05-0.69C263.13,215.58,262.99,215.04,262.82,214.58z"/>
	<path class="st0" d="M291.36,209.02c-0.41-3.94-3.45-7.45-7.22-8.34c-1.69-0.41-3.23-0.53-4.72-0.36c-0.7,0.08-1.46,0.25-2.31,0.53
		c-0.93,0.32-1.79,0.8-2.81,1.42c-1.52,0.98-2.81,2.79-3.36,4.73c-0.5,1.7-0.65,3.16-0.47,4.61c0.06,0.44,0.14,0.88,0.27,1.36
		c0.57,1.97,1.45,3.44,2.92,4.92c1.76,1.73,4.3,2.67,7.13,2.67c0.5,0,1-0.03,1.51-0.09c1.13-0.13,2.18-0.38,3.13-0.74
		c2.03-0.75,3.79-2.73,4.69-4.21c1.02-1.73,1.5-4.04,1.28-6.18L291.36,209.02z M281.31,204.22c0.44,0,0.98,0.08,1.4,0.18
		c0.57,0.11,1.05,0.39,1.48,0.68c1.18,0.78,2.02,2,2.6,2.94c0.22,0.43,0.35,0.89,0.41,1.41c0.12,1.14-0.16,2.51-0.75,3.67
		c-0.73,1.33-2.23,2.95-3.8,3.37c-0.28,0.09-0.56,0.15-0.84,0.18c-1.44,0.17-2.83-0.18-4.65-1.17c-1.38-0.76-2.16-2.17-2.44-4.46
		c-0.12-0.99-0.23-1.84,0.1-2.66l0,0c0.24-0.62,0.67-1.11,1.13-1.62c0.13-0.14,0.25-0.28,0.39-0.44c0.56-0.72,1.23-1.23,2.05-1.55
		c0.58-0.22,1.32-0.39,2-0.47c0.1-0.01,0.19-0.02,0.29-0.02c0.11,0,0.22-0.01,0.34-0.02C281.1,204.23,281.2,204.22,281.31,204.22z"
		/>
	<path class="st0" d="M310.55,204.85l-0.13-0.04c-0.13-0.02-0.3-0.05-0.54-0.03c-0.3,0.02-0.65,0.11-0.9,0.18l-0.12,0.03
		c-0.07,0.01-0.15,0.02-0.22,0.04c-0.05,0.01-0.11,0.02-0.18,0.03c-0.34,0.03-0.67,0.03-1,0l-0.18,0c-0.24-0.01-0.43-0.01-0.67,0.01
		c-0.15,0.01-0.32,0.05-0.62,0.12l-0.16,0.04c-0.19,0.05-0.44,0.13-0.67,0.15c-0.02,0-0.06,0.01-0.09,0.01l-0.05-0.02
		c-0.59-0.22-0.73-1.24-0.8-1.77l-0.02-0.21c-0.06-0.62,0.09-1.41,0.61-1.58c0.11-0.01,0.22-0.03,0.33-0.05
		c0.08-0.01,0.16-0.03,0.23-0.03c0.38-0.04,0.87-0.02,1.3-0.01c0.36,0.01,0.67,0.02,0.88,0l1.09-0.09c0.11-0.01,0.26,0,0.43,0.01
		c0.24,0.02,0.49,0.03,0.71,0.01c0.19-0.02,0.33-0.07,0.44-0.12c0.66-0.3,0.61-0.87,0.59-1.05l-0.03-0.4
		c-0.01-0.12-0.01-0.26-0.01-0.41c0-0.19,0-0.39-0.01-0.58c-0.01-0.14-0.02-0.29-0.09-0.48c-0.4-0.92-1.51-0.83-1.88-0.8
		c-0.21,0.02-0.43,0.05-0.63,0.09c-0.17,0.03-0.32,0.05-0.46,0.07c-0.46,0.04-0.92,0.05-1.39,0.06c-0.5,0.01-0.99,0.02-1.47,0.07
		c-0.14,0.01-0.26,0.03-0.39,0.05c-0.11,0.02-0.22,0.03-0.36,0.05c-0.2,0.03-0.4,0.07-0.59,0.11c-0.26,0.05-0.51,0.11-0.76,0.13
		l-0.12,0.01c-0.24,0.02-0.47,0-0.71-0.02c-0.25-0.02-0.51-0.05-0.78-0.02l-0.14,0.01c-0.52,0.07-1.11,0.4-1.01,1.52
		c0.02,0.22,0.07,0.44,0.11,0.66c0.04,0.18,0.08,0.36,0.09,0.53l0.01,0.09c0.03,1.1,0.11,2.19,0.19,3.25
		c0.06,0.86,0.13,1.72,0.17,2.59l0.03,0.34c0.05,0.5,0.14,0.99,0.24,1.47c0.07,0.36,0.14,0.71,0.19,1.05l0.03,0.3
		c0.06,0.6,0.03,1.24,0.01,1.86c-0.01,0.23-0.02,0.46-0.02,0.69c0,0.93,0.03,1.96,0.09,2.99l0.03,0.34c0.12,1.26,0.6,1.71,1.92,1.8
		c0.12,0.01,0.25,0.01,0.38,0.01c0.13,0,0.27,0,0.42-0.02c1.26-0.12,1.61-0.79,1.68-1.37c0.01-0.23,0.02-0.53-0.01-0.83
		c-0.03-0.37-0.11-0.77-0.19-1.16c-0.07-0.35-0.14-0.71-0.17-1.02c-0.08-0.92-0.18-1.96-0.32-2.86l-0.06-0.61
		c-0.06-0.66,0.03-0.99,0.69-1.2c0.28-0.08,0.57-0.13,0.85-0.16c0.59-0.05,1.13-0.01,1.72-0.06c0.17-0.01,0.4,0,0.65,0
		c0.36,0.01,0.77,0.03,1.16-0.01c0.42-0.04,0.97-0.16,1.23-0.59c0.05-0.09,0.14-0.25,0.07-1.16
		C311.01,205.09,310.7,204.93,310.55,204.85z"/>
	<path class="st0" d="M326.77,208.15c-0.24-0.62-0.8-0.96-1.45-0.93c-0.22,0.02-0.41,0.09-0.61,0.16l-0.15,0.06
		c-0.31,0.18-0.69,0.28-1.17,0.32c-0.32,0.02-0.65,0.02-0.98,0.01c-0.37-0.01-0.74-0.01-1.11,0.01c-0.28,0.02-0.6,0.04-0.91,0.14
		c-0.87,0.23-1.32,1.03-1.23,2.19c0.02,0.23,0.07,0.47,0.12,0.68c0.16,0.84,0.59,1.24,1.33,1.24c0.05,0,0.11,0,0.16-0.01
		c0.24-0.02,0.5-0.07,0.76-0.12c0.18-0.04,0.36-0.07,0.54-0.1c1.01-0.1,2.06-0.21,3.08-0.28l0.52-0.04c0.32-0.02,1.3-0.09,1.38-1.16
		c0.02-0.17,0.01-0.41-0.01-0.7C327.01,209.16,326.91,208.62,326.77,208.15z"/>
	<path class="st0" d="M345.92,195.37c-0.57-0.01-1.11-0.01-1.68,0.02c-0.35,0.02-0.71,0.04-1.08,0.07
		c-0.36,0.02-0.73,0.05-1.09,0.07c-0.43,0.02-0.86,0.05-1.32,0.04c-0.31,0.02-0.6,0-0.91,0.02c-0.48,0.02-0.98,0.08-1.47,0.14
		l-0.66,0.07c-0.94,0.11-1.78,0.16-2.8,0.22l-0.35,0.02c-0.45,0.03-0.89,0.14-1.14,0.75c-0.09,0.22-0.08,0.41-0.07,0.59
		c0.02,0.26,0.08,0.57,0.14,0.82l0.05,0.21c0.13,1.06,0.63,1.52,1.6,1.46c0.27-0.02,0.61-0.07,0.97-0.15
		c0.15-0.02,0.32-0.06,0.5-0.09c0.27-0.06,0.56-0.12,0.84-0.13c0.3-0.02,0.68,0.01,0.83,0.29c0.12,0.16,0.15,0.47,0.16,0.72
		c0.02,0.29,0,0.61-0.02,0.92c-0.02,0.3-0.03,0.58-0.02,0.81c0.05,1.02,0.14,2.01,0.22,2.98c0.08,0.93,0.16,1.85,0.21,2.77
		c0.04,0.71,0.02,1.46-0.01,2.18c-0.02,0.73-0.04,1.49-0.01,2.21c0.02,0.44,0.08,0.88,0.13,1.28c0.02,0.09,0.03,0.2,0.04,0.31
		c0.04,0.43,0.09,1.03,0.7,1.33c0.15,0.04,0.28,0.06,0.41,0.06c0.02,0,0.04,0,0.06,0c0.34-0.02,0.75-0.14,1.05-0.23l0.23-0.05
		c0.11-0.01,0.25,0.01,0.38,0.02c0.18,0.02,0.37,0.04,0.55,0.02c0.15-0.01,0.3-0.04,0.44-0.1c0.87-0.29,0.83-1.2,0.81-1.63
		l-0.03-0.58c-0.04-0.8-0.13-1.58-0.22-2.34c-0.09-0.79-0.19-1.6-0.23-2.46c-0.05-0.74-0.11-1.48-0.17-2.23
		c-0.09-1.15-0.18-2.31-0.24-3.48c-0.01-0.22-0.01-0.43-0.02-0.65c0-0.23-0.01-0.47-0.02-0.73c-0.01-0.18-0.04-0.37-0.08-0.57
		c-0.03-0.17-0.06-0.35-0.07-0.52c0-0.07,0.02-0.16,0.03-0.24c0.05-0.2,0.42-0.32,1.04-0.35c0.21-0.01,0.41,0,0.6,0.01
		c0.17,0.01,0.34,0.01,0.43,0c0.3,0.02,0.59,0.01,0.86-0.01c0.68-0.03,1.48-0.23,1.59-1.5l0-0.02c0.01-0.11,0.02-0.23,0.04-0.36
		c0.03-0.24,0.05-0.49,0.04-0.7C347.12,195.58,346.47,195.37,345.92,195.37z"/>
	<path class="st0" d="M372.18,211.8c-0.03-0.23-0.04-0.49-0.04-0.72c0-0.23,0-0.46,0-0.68c0-0.22,0.01-0.43,0-0.64
		c0-0.12-0.01-0.26-0.02-0.39c-0.01-0.14-0.02-0.28-0.03-0.53c-0.04-0.52-0.08-1.04-0.09-1.59c-0.01-0.7,0-1.4,0.01-2.09
		c0.01-0.7,0.02-1.39,0.01-2.09l-0.01-0.27c-0.01-0.46,0.01-0.9,0.02-1.34c0.02-0.44,0.03-0.88,0.02-1.33
		c-0.01-0.34-0.02-0.68-0.04-1.01c-0.01-0.32-0.03-0.63-0.03-0.97c-0.01-0.32-0.01-0.61,0.01-0.89l0.03-0.21
		c0.06-0.34,0.11-0.69,0.11-1c-0.01-0.72-0.38-1.13-1.22-1.3l-0.29-0.02c-0.3-0.02-0.62-0.05-0.94-0.05
		c-0.33,0.01-1.34,0.03-1.76,0.76c-0.23,0.33-0.25,0.68-0.25,0.98c0.01,0.3,0.07,0.6,0.12,0.89c0.05,0.24,0.1,0.48,0.1,0.71l0,0.08
		c-0.02,0.31-0.02,0.65-0.01,0.99l0.01,0.49c0.01,0.48,0.02,0.96,0,1.43c-0.07,0.82-0.31,0.87-1.32,0.92l-0.33,0.01
		c-0.62,0.04-1.24,0.09-1.89,0.11c-0.56,0.01-1.14,0-1.7-0.04c-0.14,0-0.28,0-0.42,0.01c-0.51,0.02-0.8,0.02-1.01-0.24
		c-0.21-0.25-0.31-0.6-0.32-1.15c-0.01-0.2,0-0.4,0-0.6c0-0.21,0-0.42,0-0.63c-0.01-0.45,0.04-0.91,0.08-1.34
		c0.05-0.44,0.1-0.9,0.08-1.36l-0.01-0.27c-0.13-1.52-1.21-1.55-2.16-1.57l-0.13,0l-0.54,0.02c-0.53,0.02-1.27,0.1-1.67,0.67
		c-0.19,0.3-0.21,0.66-0.2,0.94c0.01,0.35,0.08,0.7,0.13,1.01c0.03,0.18,0.06,0.36,0.08,0.54c0.08,0.49,0.12,1.01,0.17,1.5l0.12,1.5
		c0.01,0.29,0.01,0.59,0.01,0.88c0,0.28,0,0.56,0.01,0.85c0.01,0.27,0.02,0.5,0.06,0.66c0.04,0.37,0.05,0.72,0.07,1.16
		c0.03,0.75,0.02,1.51,0.02,2.27c0,0.78-0.01,1.57,0.02,2.36c0,0.11-0.01,0.34-0.04,0.64c-0.04,0.59-0.11,1.47-0.08,2.25
		c0.02,0.57,0.08,2.3,1.16,2.3c0.01,0,0.02,0,0.04,0l0.38-0.08c0.16-0.03,0.33-0.06,0.51-0.07l0.12,0c0.16-0.01,0.32,0,0.48,0.01
		c0.18,0.01,0.35,0.02,0.51,0.02c0.34-0.01,0.78-0.09,1.11-0.66c0.13-0.27,0.18-0.6,0.17-1.02c-0.01-0.18-0.03-0.37-0.05-0.57
		c-0.02-0.17-0.04-0.34-0.05-0.52l-0.22-2.92c0-0.12-0.01-0.24-0.03-0.38c-0.01-0.14-0.03-0.3-0.03-0.48
		c-0.03-0.85,0.06-1.44,0.24-1.73c0.2-0.3,0.76-0.47,1.65-0.49c0.18-0.01,0.35,0,0.5,0c0.15,0,0.28,0.01,0.39,0
		c0.87,0.01,1.74,0.07,2.75,0.15l0.13,0.02c1.1,0.08,1.16,0.13,1.18,1.07c0.01,0.38,0.09,0.69,0.17,0.99
		c0.05,0.18,0.09,0.36,0.12,0.5l0.01,0.27c0,0.17-0.01,0.35-0.02,0.54c-0.01,0.2-0.02,0.41-0.02,0.6c0.02,1.01,0.02,1.97,0.01,3
		c0.02,0.62,0.28,1.36,1.46,1.36c0.02,0,0.04,0,0.06,0c0.11,0,0.23-0.01,0.36-0.02c0.13-0.01,0.27-0.02,0.41-0.03l0.34-0.01
		c1.43-0.03,1.41-1.17,1.4-1.66L372.18,211.8z M357.17,199.55L357.17,199.55L357.17,199.55L357.17,199.55z"/>
	<path class="st0" d="M391.91,209.73c-0.3,0.01-0.51,0-0.69,0.04c-0.17,0.04-0.31,0.09-0.46,0.14c-0.2,0.07-0.35,0.13-0.56,0.14
		l-0.31-0.07c-0.29-0.05-0.57-0.11-0.9-0.1l-0.73,0.03c-0.19,0.02-0.38,0.02-0.49,0.04c-0.62,0-0.79-0.2-0.87-0.6
		c-0.1-0.31-0.14-0.64-0.14-1.07c0-0.25,0.02-0.51,0.04-0.77c0.02-0.27,0.05-0.54,0.04-0.8l0-0.71c0-0.82,0.13-0.96,0.55-0.97l1,0
		c1.5-0.02,3.21,0.06,4.83,0.13l0.22,0c0.27-0.03,0.59-0.03,0.79-0.3c0.16-0.22,0.18-0.49,0.18-0.78l0-0.68
		c0-0.57-0.04-1.06-0.13-1.44l-0.04-0.18l-0.17-0.09c-0.65-0.34-1.34-0.39-1.94-0.39c-0.36,0-0.68,0-1.01,0.03
		c-0.68,0.07-1.36,0.08-2.02,0.1l-1.19,0.02c-0.8,0.02-1.08-0.12-1.19-0.86c-0.03-0.23-0.03-0.45-0.03-0.65
		c0-0.53,0.08-0.98,0.31-1.6c0.09-0.24,0.13-0.3,0.14-0.31c0.01,0,0.04-0.01,0.17-0.01l0.13,0l0.14,0c0.47,0.03,0.9,0.04,1.43,0.06
		c0.55,0.01,1.07,0.02,1.58,0.03c0.48,0.02,0.95,0.03,1.44,0.03c0.98,0,2.21,0,2.39-1.6l0-0.74c0-0.68-0.17-1.4-1.49-1.49
		c-0.94-0.03-1.94-0.06-2.81-0.06c-0.01,0-0.02,0-0.03,0c-0.81,0-1.61,0.07-2.39,0.13c-0.76,0.06-1.48,0.12-2.2,0.13
		c-0.06,0.01-0.21-0.01-0.31-0.01c-0.11-0.01-0.22,0-0.29-0.01c-0.18-0.01-0.36-0.04-0.53-0.06c-0.25-0.03-0.49-0.05-0.69-0.06
		c-0.75,0.01-1.13,0.48-1.12,1.4c0,0.47,0.07,0.96,0.14,1.44c0.07,0.48,0.13,0.98,0.14,1.47c0,0.47,0,0.95,0,1.42
		c0,0.48-0.01,0.96,0,1.44l0,0.37c0,0.69,0,1.37-0.02,2.06c-0.01,0.69-0.02,1.39-0.02,2.09c0,0.44,0.01,0.9,0.04,1.33l0.04,0.74
		c0.03,0.51,0.06,1.03,0.07,1.54c0,0.1-0.01,0.2-0.01,0.3c-0.01,0.13-0.02,0.25-0.01,0.35c-0.01,0.24-0.1,0.55-0.2,0.88
		c-0.13,0.43-0.25,0.87-0.25,1.3c0,0.25,0.06,0.47,0.17,0.63c0.19,0.38,0.67,0.82,1.74,0.83c0.29,0,0.6-0.04,0.85-0.08l0.16-0.02
		c0.44-0.06,0.96-0.06,1.46-0.06c0.42,0,0.88,0,1.28,0.02c0.29,0.03,0.61,0.06,0.93,0.06c0.23,0.01,0.55-0.01,0.82-0.02
		c0.25-0.01,0.48-0.01,0.71-0.01l0.53,0c0.2,0.01,0.43,0.06,0.67,0.11c0.36,0.08,0.78,0.16,1.17,0.17c0,0,0.01,0,0.01,0
		c0.32,0,0.72-0.04,1-0.31c0.46-0.4,0.52-1.63,0.52-2.15c0-0.25-0.02-0.87-0.22-1.26C393.85,209.8,392.5,209.73,391.91,209.73z"/>
	<path class="st0" d="M407.73,205.16c-0.22,0-0.43,0.05-0.63,0.11l-0.15,0.05c-0.33,0.16-0.68,0.24-1.2,0.21
		c-0.32-0.01-0.65-0.04-0.98-0.07c-0.36-0.04-0.73-0.08-1.11-0.08c-0.29,0-0.61-0.01-0.92,0.06c-0.89,0.16-1.4,0.91-1.42,2.07
		c0,0.23,0.03,0.47,0.06,0.69c0.09,0.9,0.55,1.35,1.38,1.36c0.01,0,0.02,0,0.04,0c0.24,0,0.48-0.03,0.74-0.05
		c0.18-0.02,0.37-0.04,0.54-0.05c1.02-0.02,2.07-0.03,3.09-0.01l0.53,0.01c0.32,0.01,1.3,0.03,1.48-1.03
		c0.04-0.19,0.05-0.41,0.05-0.7c0.01-0.48-0.04-1.03-0.15-1.5C408.91,205.58,408.39,205.18,407.73,205.16z"/>
	<path class="st0" d="M432.24,195.73c-1.6-0.66-3.11-1.01-4.6-1.07c-0.7-0.03-1.47,0.03-2.36,0.17c-0.97,0.18-1.89,0.51-2.99,0.97
		c-1.65,0.73-3.19,2.33-4.03,4.16c-0.75,1.6-1.12,3.03-1.16,4.49c-0.01,0.44,0.01,0.89,0.06,1.38c0.27,2.04,0.9,3.63,2.13,5.31
		c1.73,2.33,4.69,3.74,8.13,3.87c0.19,0.01,0.39,0.01,0.57,0.01c0.92,0,1.8-0.09,2.62-0.26c2.11-0.43,4.16-2.12,5.27-3.44
		c1.27-1.55,2.1-3.76,2.2-5.91l0.02-0.34C438.3,201.11,435.84,197.18,432.24,195.73z M427.5,211.16c-1.44-0.06-2.76-0.61-4.41-1.86
		c-1.25-0.96-1.8-2.48-1.72-4.78c0.03-1,0.06-1.86,0.5-2.61l0,0c0.33-0.58,0.83-1,1.36-1.43c0.14-0.12,0.29-0.24,0.44-0.37
		c0.66-0.63,1.4-1.03,2.26-1.22c0.51-0.11,1.12-0.16,1.71-0.16c0.11,0,0.23,0,0.34,0.01c0.1,0,0.19,0.01,0.28,0.03
		c0.11,0.01,0.22,0.03,0.34,0.03c0.48,0.02,1.16,0.22,1.65,0.42c0.55,0.19,0.98,0.55,1.36,0.9c1.05,0.95,1.69,2.28,2.11,3.3
		c0.15,0.45,0.21,0.93,0.19,1.46c-0.05,1.14-0.54,2.46-1.3,3.51c-0.92,1.21-2.65,2.58-4.27,2.75
		C428.07,211.15,427.78,211.17,427.5,211.16z"/>
	<path class="st0" d="M454.62,196.53c-0.77-0.13-1.55-0.2-2.31-0.26c-0.43-0.04-0.86-0.07-1.31-0.12c-0.2-0.01-0.5-0.09-0.82-0.17
		c-0.32-0.08-0.66-0.17-1.04-0.22l-0.23-0.01c-0.41-0.02-0.71,0.01-0.98,0.12c-0.66,0.35-0.71,1.29-0.73,1.59
		c-0.04,0.61,0.01,1.3,0.06,1.7c0.12,1.15,0.13,2.41,0.04,3.99c-0.02,0.29-0.04,0.59-0.07,0.88c-0.02,0.29-0.05,0.57-0.07,0.86
		c-0.02,0.31-0.05,0.6-0.08,0.88c-0.03,0.28-0.06,0.55-0.08,0.88c-0.02,0.33-0.04,0.66-0.03,0.99c0,0.42-0.02,0.84-0.05,1.29
		c-0.06,1.05-0.19,2.1-0.36,3.01l-0.07,0.29c-0.11,0.41-0.25,0.97-0.29,1.5c-0.05,0.89,0.27,1.3,0.54,1.48
		c0.34,0.25,0.88,0.3,1.31,0.34c0.1,0.01,0.2,0.02,0.37,0.05c0.25,0.04,0.48,0.08,0.71,0.1c0.72,0.05,1.22-0.18,1.57-0.69
		c0.17-0.26,0.28-0.6,0.3-0.95c0.04-0.54-0.08-1.11-0.18-1.62c-0.08-0.4-0.15-0.77-0.15-1.07l-0.01-0.33c-0.01-0.33-0.02-0.7,0-1.08
		c0.04-0.64,0.17-1.13,0.36-1.38l0.07-0.09c0.21,0.03,0.61,0.84,0.75,1.11c0.1,0.2,0.19,0.38,0.27,0.5c0.4,0.53,0.72,1.09,1.06,1.67
		c0.16,0.27,0.32,0.55,0.49,0.82c0.21,0.35,0.38,0.71,0.55,1.1c0.23,0.5,0.47,1.02,0.81,1.51c0.48,0.68,1.02,0.99,1.83,1.05
		c0.08,0.01,0.17,0.01,0.25,0.01c0.16,0,0.33-0.01,0.5-0.02c0.19-0.01,0.38-0.01,0.6-0.02c0.69,0.02,1.53,0.04,1.59-0.79
		c0.02-0.22-0.01-0.46-0.11-0.77c-0.21-0.53-0.54-1.11-0.95-1.65c-0.37-0.55-0.78-1.07-1.18-1.57c-0.55-0.69-1.06-1.34-1.47-2.05
		c-0.1-0.21-0.26-0.42-0.41-0.63c-0.12-0.17-0.25-0.33-0.33-0.52c-0.02-0.06-0.05-0.15-0.06-0.16c0.03-0.03,0.16-0.1,0.26-0.16
		l0.22-0.12c0.23-0.12,0.46-0.23,0.68-0.34c0.84-0.4,1.7-0.82,2.32-1.6c0.59-0.75,0.99-1.94,1.08-3.2c0.08-1.06-0.05-2.02-0.36-2.71
		C458.76,198.18,457.01,196.96,454.62,196.53z M451.04,201.82c-0.03-0.34-0.07-0.69-0.05-0.99c0.02-0.33,0.1-0.57,0.25-0.72
		c0.13-0.15,0.4-0.21,0.88-0.18c0.34,0.02,0.69,0.09,0.99,0.16c0.17,0.04,0.33,0.07,0.44,0.08c1.35,0.28,2.07,0.65,2.05,1.73
		l-0.01,0.24c-0.04,0.61-0.28,1.29-0.65,1.89c-0.43,0.7-0.92,0.78-2.01,0.76l-0.29,0.01c-0.23,0.01-0.49,0.02-0.73,0.01
		c-0.36-0.02-0.58-0.12-0.75-0.36c-0.15-0.16-0.2-0.38-0.17-0.76c0.02-0.26,0.06-0.49,0.12-0.84l0-0.04
		C451.11,202.5,451.07,202.17,451.04,201.82z"/>
	<path class="st0" d="M485.39,205.51c-0.4-1.7-1.48-3.93-3.32-5.11c-0.16-0.11-0.31-0.22-0.46-0.33c-0.52-0.38-1.06-0.77-1.72-0.94
		c-0.62-0.14-1.22-0.33-1.78-0.5c-0.25-0.08-0.49-0.15-0.7-0.21c-0.41-0.14-0.82-0.18-1.22-0.21l-1.97-0.17
		c-0.54-0.1-1.09-0.17-1.65-0.24c-0.34-0.04-0.69-0.09-1.06-0.14c-0.11-0.01-0.19-0.02-0.28-0.04c-0.09-0.02-0.17-0.03-0.26-0.04
		c-0.46-0.04-0.79,0.17-1.02,0.63c-0.11,0.17-0.17,0.36-0.18,0.54c-0.02,0.24,0.01,0.48,0.04,0.68c0.02,0.12,0.03,0.24,0.04,0.31
		l-0.05,0.64c0.01,0.2,0.02,0.42,0.01,0.62c-0.06,0.67-0.15,1.33-0.24,1.99c-0.1,0.67-0.19,1.34-0.24,2
		c-0.01,0.14-0.01,0.26-0.01,0.38c0,0.09,0,0.18-0.01,0.29c-0.04,1.28-0.16,2.69-0.26,3.93l-0.16,1.96
		c-0.04,0.51-0.1,1.01-0.16,1.52c-0.06,0.5-0.11,1-0.16,1.51l-0.03,0.33c-0.07,0.83-0.17,2.09,1.41,2.34
		c0.65,0.09,1.3,0.17,1.92,0.22c0.8,0.07,1.58,0.1,2.34,0.1c0.58,0,1.14-0.02,1.69-0.06c2.52-0.16,4.38-0.73,5.7-1.76
		c0.86-0.67,1.46-1.36,1.84-2.13c0.15-0.31,0.33-0.59,0.51-0.87c0.28-0.44,0.57-0.9,0.76-1.45c0.44-1.17,0.7-2.23,0.8-3.23
		C485.59,207.14,485.55,206.31,485.39,205.51L485.39,205.51z M472.9,212.2c0.02-0.14,0.04-0.28,0.05-0.42l0.04-0.49
		c0.03-0.34,0.05-0.68,0.07-1.01c0.02-0.33,0.04-0.66,0.07-1l0.02-0.25c0.05-0.53,0.14-1.09,0.22-1.64
		c0.07-0.43,0.14-0.85,0.18-1.26l0.04-0.4c0.03-0.34,0.06-0.71,0.06-1.12c-0.03-0.35-0.06-0.69-0.03-1.06
		c-0.03-0.32-0.04-0.58-0.02-0.82c0.03-0.36,0.11-0.58,0.24-0.69c0.11-0.09,0.3-0.14,0.55-0.14c0.07,0,0.14,0,0.22,0.01
		c0.04,0,0.09,0.01,0.13,0.02c0.08,0.02,0.18,0.03,0.19,0.03c0.18,0.05,0.33,0.07,0.51,0.08c0.22,0.02,0.44,0.02,0.67,0.03
		c0.19,0,0.39,0,0.57,0.02c0.12,0.01,0.22,0.02,0.39,0.06c0.2,0.03,0.42,0.17,0.65,0.31c0.15,0.09,0.29,0.18,0.43,0.25
		c0.78,0.4,1.4,0.89,1.97,1.55c0.78,0.83,1.5,2.27,1.37,3.61c-0.03,0.28-0.07,0.47-0.18,0.71c-0.08,0.23-0.18,0.44-0.29,0.66
		c-0.11,0.24-0.23,0.48-0.32,0.74l-0.08,0.26c-0.1,0.32-0.19,0.61-0.33,0.86c-0.42,0.67-1.01,1.16-1.89,1.59
		c-0.9,0.42-1.71,0.63-2.61,0.7c-0.29,0.02-0.59,0.09-0.9,0.15c-0.42,0.09-0.85,0.17-1.21,0.15c-0.13-0.01-0.25-0.05-0.33-0.07
		c-0.44-0.19-0.58-0.45-0.53-1.01C472.86,212.48,472.88,212.34,472.9,212.2z"/>
	<path class="st0" d="M500.08,200.63l-0.25-0.03c-0.25-0.03-0.51-0.09-0.77-0.15c-0.28-0.06-0.55-0.13-0.82-0.16h0
		c-0.06-0.01-0.12-0.01-0.2,0c-0.04,0-0.07,0-0.21,0c-0.4,0.04-0.73,0.19-0.9,0.4c-0.27,0.24-0.43,0.62-0.48,1.14
		c-0.04,0.39-0.02,0.79,0,1.15c0.02,0.26,0.04,0.49,0.01,0.71c-0.01,0.65-0.05,1.27-0.11,1.86c-0.07,0.62-0.16,1.24-0.25,1.86
		c-0.1,0.64-0.19,1.28-0.26,1.91c-0.11,0.96-0.23,1.93-0.35,2.9c-0.13,1.01-0.26,2.03-0.37,3.04c-0.04,0.39-0.12,0.77-0.2,1.15
		c-0.08,0.4-0.17,0.79-0.21,1.18c-0.02,0.2-0.05,0.41-0.03,0.57c0.03,1.38,1.13,1.5,1.79,1.58l0.64,0.07
		c0.14,0.02,0.28,0.02,0.4,0.02c1.23,0,1.5-0.78,1.6-1.63l0.04-0.39c0.15-1.26,0.22-2.54,0.29-3.77c0.07-1.23,0.15-2.5,0.29-3.75
		c0.1-0.86,0.27-1.74,0.44-2.59c0.17-0.88,0.35-1.79,0.45-2.7l0.07-0.69c-0.01-0.13,0-0.23,0.02-0.35c0.07-0.59,0.2-1.19,0.34-1.81
		l0.02-0.21c0.03-0.29,0.04-0.65-0.18-0.93C500.68,200.73,500.35,200.66,500.08,200.63z"/>
	<path class="st0" d="M527.91,203.93c-0.29-0.07-0.56-0.14-0.81-0.17c-0.69-0.1-1.17,0.15-1.48,0.77c-0.14,0.25-0.23,0.53-0.28,0.85
		c-0.04,0.29-0.04,0.58-0.04,0.87c0,0.25,0,0.5-0.03,0.77l-0.06,0.54c-0.09,0.78-0.17,1.52-0.19,2.35c0.02,1.11,0,2-0.14,2.95
		c-0.02,0.16-0.04,0.36-0.07,0.59c-0.03,0.27-0.06,0.59-0.11,0.9c-0.04,0.26-0.13,0.88-0.4,1.15c0,0-0.01,0.01-0.02,0.02
		c-0.21-0.33-0.51-0.72-0.78-1.07c-0.2-0.27-0.44-0.48-0.67-0.7c-0.12-0.12-0.24-0.23-0.35-0.34l0,0c-0.52-0.53-0.9-1.1-1.31-1.7
		c-0.2-0.29-0.4-0.59-0.62-0.88c-0.91-1.29-1.95-2.48-2.96-3.63l-0.75-0.86c-0.68-0.72-1.19-1.56-1.73-2.44
		c-0.22-0.37-0.45-0.74-0.67-1.07l-0.08-0.14c-0.38-0.63-1.11-1.69-1.85-1.78c-0.27-0.03-0.62,0.03-0.92,0.53l-0.07,0.21
		c-0.02,0.07-0.04,0.16-0.05,0.22c-0.03,0.25-0.01,0.51,0,0.74c0.01,0.16,0.02,0.31,0.01,0.44l-0.06,0.46
		c-0.04,0.3-0.09,0.59-0.14,0.88c-0.05,0.3-0.11,0.6-0.15,0.9c-0.03,0.24-0.04,0.52-0.04,0.84c-0.06,2.13-0.21,4.13-0.44,5.93
		c-0.1,0.82-0.16,1.67-0.22,2.49c-0.06,0.83-0.12,1.69-0.23,2.52l-0.11,0.89c-0.04,0.18-0.12,0.43-0.2,0.69
		c-0.13,0.42-0.29,0.9-0.34,1.34c-0.06,0.51,0,0.89,0.2,1.2c0.16,0.23,0.51,0.51,1.84,0.68c0.34,0.04,0.96,0.11,1.32,0.07
		c0.35-0.02,0.96-0.22,1.09-1.25c0.04-0.29,0.04-0.62,0.03-0.92c0-0.23-0.01-0.45,0.01-0.62c0.13-1,0.23-1.98,0.33-2.99
		c0.02-0.19,0.04-0.55,0.06-1c0.03-0.7,0.07-1.66,0.18-2.5c0.2-1.54,0.52-1.74,0.51-1.75c0.18,0.02,0.6,0.29,1.55,1.42l0.09,0.15
		c0.59,0.65,1.36,1.5,2.01,2.38c0.42,0.55,0.85,1.09,1.27,1.63c0.75,0.95,1.53,1.93,2.22,2.95c0.41,0.63,0.92,1.19,1.41,1.74
		l0.36,0.4c0.13,0.15,0.28,0.37,0.44,0.61c0.51,0.74,1.08,1.57,1.78,1.73l0.16,0.02c0.06,0.01,0.12,0.01,0.18,0.01
		c0.54,0,0.91-0.37,1-1.03c0.05-0.35,0.04-0.74,0.03-1.05c-0.01-0.15-0.01-0.28-0.01-0.39c0.02-0.62,0.1-1.27,0.19-1.9
		c0.06-0.44,0.12-0.87,0.15-1.29c0.09-1.37,0.26-2.83,0.54-4.75c0.37-2.53,0.86-5.03,1.46-7.43l0.03-0.19
		C530.19,204.49,528.75,204.14,527.91,203.93z"/>
	<path class="st0" d="M552,220.4c0.08-0.48-0.53-2.08-0.71-2.45c-0.14-0.3-0.8-2.99-1.19-4.61c-0.25-1.03-0.47-1.93-0.56-2.27
		c-0.06-0.26-0.11-0.7-0.16-1.17c-0.18-1.58-0.36-3.21-1.32-3.37c-0.79-0.14-1.32,0.6-1.66,1.09c-0.06,0.08-0.11,0.16-0.17,0.23
		c-0.35,0.46-1.93,3.09-2.37,3.96c-0.23,0.48-5.44,7.82-5.88,8.27c-0.4,0.4-1.89,2.43-2.4,3.19c-0.08,0.14-0.17,0.31-0.2,0.52
		c-0.11,0.7,0.42,1.22,0.96,1.31c0.1,0.01,0.19,0.02,0.25,0c0.36-0.03,1.39,0.14,1.94,0.22c0.99,0.16,1.79-1.09,2.03-1.71
		c0.21-0.54,0.98-1.56,1.46-1.74c0.3-0.08,1.06-0.04,1.98,0.11c0.35,0.06,0.7,0.12,0.99,0.18c0.21,0.04,0.4,0.08,0.54,0.1l0.46,0.08
		c0.55,0.09,2.03,0.34,2.46,0.83c0.2,0.23,0.45,1.66,0.56,2.27c0.06,0.36,0.12,0.66,0.16,0.8c0.22,1.08,1.17,1.24,1.49,1.3
		c0.16,0.03,0.33,0.05,0.5,0.07c0.15,0.02,0.29,0.04,0.42,0.06c0.09,0.02,0.19,0.04,0.28,0.06c0.12,0.03,0.25,0.06,0.39,0.08
		c0.16,0.03,0.3,0.04,0.42,0.04c0.81,0,1.08-0.5,1.16-0.96c0.13-0.73-0.38-2.13-0.57-2.57C552.95,223.69,552.03,220.7,552,220.4z
		 M543.88,217.86L543.88,217.86l0.41,0.05c0.02-0.13,0.04-0.21,0.12-0.35c0.51-0.88,1.06-1.46,1.43-1.84
		c0.13-0.14,0.24-0.26,0.34-0.37c0.07-0.09,0.12-0.18,0.18-0.27c0.08-0.12,0.2-0.31,0.28-0.33c0.21,0.03,0.27,0.34,0.32,0.9
		c0.01,0.12,0.02,0.23,0.03,0.31c0.03,0.29,0.14,0.71,0.25,1.12c0.08,0.29,0.15,0.57,0.18,0.75c0.01,0.09,0.04,0.19,0.08,0.29
		c0.03,0.08,0.07,0.21,0.07,0.24c0,0-0.06,0.06-0.3,0.11c-0.93,0.2-1.83,0.16-2.11,0.12c-0.04-0.01-0.95-0.16-0.87-0.66
		L543.88,217.86L543.88,217.86L543.88,217.86z"/>
	<path class="st0" d="M571.93,211.57c-0.75-0.22-1.52-0.39-2.26-0.54c-0.43-0.09-0.85-0.18-1.3-0.29c-0.19-0.04-0.48-0.15-0.79-0.27
		c-0.31-0.12-0.64-0.25-0.95-0.33l-0.28-0.06c-0.41-0.07-0.71-0.08-0.99,0c-0.47,0.18-0.77,0.67-0.92,1.49
		c-0.11,0.6-0.15,1.29-0.14,1.69c-0.02,1.16-0.16,2.38-0.45,3.96c-0.05,0.28-0.11,0.55-0.17,0.83c-0.06,0.3-0.12,0.59-0.18,0.89
		c-0.06,0.3-0.12,0.59-0.19,0.86c-0.07,0.28-0.13,0.54-0.18,0.82c-0.06,0.34-0.12,0.69-0.16,1.03c-0.05,0.42-0.12,0.83-0.2,1.27
		c-0.19,1.04-0.44,2.06-0.73,2.95l-0.11,0.28c-0.16,0.39-0.37,0.93-0.47,1.46c-0.13,0.7,0,1.23,0.35,1.54
		c0.31,0.29,0.84,0.4,1.26,0.5c0.1,0.02,0.19,0.04,0.26,0.06l0.11,0.03c0.24,0.07,0.46,0.14,0.68,0.18
		c0.69,0.13,1.24-0.03,1.65-0.49c0.2-0.24,0.35-0.56,0.42-0.91c0.1-0.53,0.05-1.11,0.02-1.63c-0.03-0.4-0.06-0.78-0.01-1.09
		l0.03-0.28c0.03-0.34,0.07-0.73,0.14-1.12c0.12-0.63,0.3-1.1,0.52-1.32l0.08-0.08c0.14,0.03,0.34,0.43,0.61,1.19
		c0.08,0.21,0.14,0.4,0.21,0.53c0.33,0.58,0.59,1.17,0.85,1.79c0.13,0.29,0.25,0.59,0.39,0.88c0.17,0.37,0.29,0.75,0.42,1.16
		c0.17,0.53,0.34,1.07,0.62,1.59c0.39,0.73,0.9,1.11,1.69,1.26c0.24,0.05,0.49,0.07,0.76,0.09c0.19,0.01,0.39,0.03,0.59,0.05
		c0.24,0.04,0.5,0.08,0.74,0.08c0.45,0,0.84-0.13,0.94-0.66c0.04-0.22,0.04-0.46-0.01-0.77c-0.14-0.55-0.4-1.17-0.75-1.75
		c-0.3-0.59-0.64-1.15-0.98-1.7c-0.46-0.75-0.89-1.46-1.21-2.21c-0.08-0.22-0.21-0.45-0.33-0.67c-0.1-0.18-0.21-0.36-0.26-0.55
		c-0.01-0.06-0.03-0.15-0.04-0.17c0.03-0.03,0.18-0.08,0.28-0.12l0.24-0.09c0.24-0.09,0.48-0.17,0.72-0.25
		c0.89-0.3,1.8-0.61,2.52-1.3c0.68-0.67,1.23-1.8,1.47-3.04c0.2-1.05,0.2-2.02-0.03-2.73C575.7,213.18,573.58,212.08,571.93,211.57z
		 M567.25,217.28l0.4,0.08l0-0.01c0.05-0.29,0.06-0.62,0.07-0.97c0.01-0.34,0.02-0.7,0.07-1c0.06-0.33,0.17-0.56,0.33-0.69
		c0.15-0.14,0.43-0.16,0.9-0.07c0.34,0.06,0.68,0.18,0.98,0.28c0.17,0.06,0.32,0.11,0.43,0.14c1.31,0.45,1.99,0.89,1.83,1.96
		l-0.05,0.24c-0.12,0.6-0.43,1.25-0.87,1.79c-0.51,0.64-1.01,0.65-2.1,0.5l-0.29-0.02c-0.23-0.02-0.49-0.03-0.74-0.08
		c-0.35-0.07-0.56-0.19-0.71-0.45c-0.13-0.18-0.15-0.41-0.08-0.78c0.04-0.24,0.11-0.45,0.21-0.78L567.25,217.28z"/>
	<path class="st0" d="M601.29,217.8c-0.15-0.24-0.41-0.39-0.8-0.48c-0.21-0.05-0.46-0.12-0.73-0.2c-0.34-0.1-0.7-0.21-1.04-0.28
		c-0.51-0.11-0.9-0.15-1.2-0.11c-0.9,0.14-1.54,1.07-2,1.75l-0.2,0.29c-0.43,0.64-1.02,1.23-1.58,1.79l-0.31,0.31
		c-0.38,0.37-0.83,0.84-1.25,0.75c-0.07-0.02-0.14-0.03-0.16-0.05l-0.08-0.07c-0.18-0.12-0.54-0.75-0.94-2.1
		c-0.06-0.25-0.13-0.49-0.2-0.74c-0.16-0.55-0.3-1.07-0.38-1.63l-0.02-0.15c-0.06-0.46-0.14-1.04-0.53-1.48
		c-0.23-0.24-0.53-0.4-0.88-0.48c-0.27-0.06-0.57-0.05-0.84-0.06c-0.25,0-0.47,0-0.67-0.04c-0.1-0.02-0.22-0.08-0.35-0.15
		c-0.17-0.09-0.36-0.18-0.57-0.23c-0.2-0.04-0.45-0.06-0.74,0.12c-0.28,0.14-0.46,0.37-0.52,0.66c-0.13,0.64,0.36,1.47,0.72,2.08
		c0.09,0.15,0.16,0.28,0.22,0.38c0.77,1.48,1.47,3.3,2.07,5.45c0.08,0.24,0.16,0.49,0.25,0.74c0.2,0.58,0.4,1.18,0.52,1.71
		c0.05,0.38,0.03,0.79-0.07,1.25c-0.11,0.49-0.3,1.04-0.42,1.36c-0.16,0.6-0.28,1.18-0.41,1.78l-0.25,1.17
		c-0.04,0.2-0.11,0.43-0.18,0.67c-0.09,0.3-0.19,0.63-0.26,0.96c-0.12,0.57-0.13,1.04-0.04,1.38c0.05,0.27,0.28,0.63,1.04,0.79
		c0.46,0.1,1.01,0.11,1.46,0.11c0.19,0,0.35,0.01,0.42,0.01l0.14,0.03c0.17,0.04,0.38,0.09,0.61,0.09c0.25,0,0.52-0.06,0.77-0.26
		c0.18-0.17,0.26-0.43,0.29-0.58c0.05-0.24,0.07-0.5,0.08-0.74c0-0.1,0.01-0.2,0.01-0.24l0.08-0.36c0.07-0.34,0.16-0.67,0.25-1
		c0.09-0.34,0.18-0.68,0.25-1.03c0.02-0.1,0.04-0.2,0.05-0.29c0.01-0.07,0.02-0.15,0.04-0.23c0.1-0.53,0.12-1.03,0.15-1.52
		c0.02-0.47,0.04-0.91,0.13-1.36l0.03-0.14c0.3-1.4,1.62-2.59,2.79-3.63l0.53-0.48c0.4-0.35,0.78-0.71,1.15-1.07
		c0.3-0.29,0.6-0.57,0.94-0.88c0.25-0.24,0.54-0.47,0.83-0.69c0.38-0.29,0.77-0.59,1.07-0.92c0.26-0.25,0.73-0.74,0.85-1.27
		C601.46,218.23,601.42,218,601.29,217.8z"/>
</g>
<g>
	<path class="st0" d="M248.12,415.52c-0.09-2.65-0.26-5.43-0.27-8.21c-0.03-7.99-0.01-15.98-0.01-23.98c0-0.47-0.03-0.94,0.01-1.4
		c0.09-0.91,0.87-1.72,1.78-1.89c0.13-0.02,0.27-0.02,0.4-0.03c3.53-0.12,7.06-0.47,10.58-0.31c4.02,0.18,8.09,0.29,12.02,1.48
		c1.63,0.49,3.14,1.15,4.26,2.45c0.99,1.15,2.05,2.3,2.78,3.61c1.15,2.05,0.42,7.17-1.07,9.09c-0.4,0.51-0.75,1.07-1.16,1.66
		c0.42,0.62,0.74,1.2,1.16,1.7c3.37,4.04,3.22,8.39,1.02,12.82c-1.08,2.17-2.98,3.31-5.44,3.5c-2.91,0.22-5.82,0.61-8.73,0.7
		c-2.79,0.08-5.58-0.17-8.38-0.23c-2.07-0.05-4.14-0.03-6.21-0.04C249.98,416.43,249.1,416.48,248.12,415.52z M256.23,394.33
		c0.76,0.16,1.45,0.4,2.14,0.42c2.47,0.06,4.94,0.11,7.41,0.04c1.32-0.04,2.64-0.27,3.93-0.54c0.62-0.13,1.29-0.44,1.74-0.87
		c2.15-2.03,1.11-5.14-0.76-6.11c-0.91-0.47-2-0.75-3.03-0.83c-2.39-0.19-4.79-0.23-7.18-0.27c-0.72-0.01-1.46,0.12-2.17,0.27
		c-1.38,0.3-2.04,1.1-2.07,2.51C256.21,390.68,256.23,392.4,256.23,394.33z M263.08,410.53c0.01-0.06,0.01-0.12,0.02-0.18
		c0.87,0,1.75,0.1,2.6-0.02c1.63-0.23,3.29-0.44,4.86-0.92c1.62-0.49,2.37-1.68,2.45-3.51c0.07-1.7-0.95-3.06-2.64-3.5
		c-1.46-0.39-2.99-0.73-4.49-0.75c-2.52-0.04-5.05,0.17-7.57,0.33c-1.38,0.09-2.03,0.79-2.03,2.2c0,1.18,0.3,2.37,0.27,3.55
		c-0.04,1.47,0.78,2.07,2,2.27C260.05,410.25,261.57,410.36,263.08,410.53z"/>
	<path class="st0" d="M337.1,415.66c-1.37,0.94-2.93,0.52-4.43,0.48c-0.72-0.02-1.45-0.26-2.16-0.25c-1.08,0.02-1.77-0.43-2.18-1.4
		c-0.23-0.55-0.52-1.08-0.73-1.63c-0.51-1.31-1.5-2.04-2.85-2.17c-1.98-0.19-3.98-0.38-5.97-0.36c-2.99,0.02-5.98,0.2-8.97,0.33
		c-1.83,0.08-3.31,0.89-3.79,2.69c-0.74,2.77-2.71,3.34-5.17,3.27c-1-0.03-2.01-0.03-3.01-0.01c-0.92,0.02-1.68-0.26-2.34-1
		c0.16-0.41,0.27-0.79,0.45-1.13c1.29-2.54,2.54-5.1,3.9-7.61c2.7-4.96,4.76-10.21,7.07-15.34c1.55-3.45,3.11-6.89,4.62-10.35
		c0.38-0.87,1.08-1.21,1.88-1.23c2.27-0.08,4.54-0.08,6.81-0.08c1.19,0,1.75,0.85,2.19,1.77c0.92,1.91,1.83,3.84,2.68,5.78
		c1.15,2.61,2.2,5.26,3.39,7.85c2.74,5.97,5.53,11.92,8.32,17.86C337.21,413.93,337.39,414.73,337.1,415.66z M316.97,405.86
		c0-0.01,0-0.01,0-0.02c1.14,0,2.28,0.1,3.4-0.02c2.25-0.24,3.15-1.94,2.2-3.96c-1.18-2.52-2.31-5.07-3.48-7.59
		c-0.19-0.42-0.45-0.82-0.75-1.17c-0.93-1.05-1.79-1.06-2.9-0.05c-0.28,0.26-0.44,0.66-0.6,1.02c-0.71,1.57-1.4,3.15-2.09,4.73
		c-0.56,1.27-1.16,2.53-1.65,3.83c-0.4,1.07-0.12,2.01,0.81,2.56c0.6,0.35,1.35,0.57,2.05,0.64
		C314.96,405.94,315.97,405.86,316.97,405.86z"/>
	<path class="st0" d="M363.02,391.03c0.92-0.67,1.62-1.09,2.19-1.62c2.65-2.48,5.31-4.95,7.89-7.5c1.05-1.04,2.17-1.49,3.71-1.48
		c1.95,0.02,3.9-0.28,5.85-0.31c1.01-0.02,2.03,0.25,3.38,0.43c-0.55,0.65-0.84,1.07-1.21,1.42c-4.05,3.88-8.13,7.74-12.18,11.62
		c-0.93,0.9-1.79,1.86-2.65,2.83c-0.98,1.1-1.11,2.03-0.33,3.23c0.51,0.78,1.15,1.51,1.83,2.17c2.4,2.34,4.85,4.63,7.27,6.96
		c1.87,1.79,3.43,3.85,5.61,5.36c0.51,0.36,1.23,0.77,0.89,1.73c-3.06,0.37-6.18,0.73-9.31,0.49c-0.69-0.05-1.42-0.55-1.97-1.01
		c-1.36-1.15-2.6-2.43-3.93-3.62c-1.47-1.32-2.97-2.63-4.48-3.91c-0.74-0.62-1.56-1.14-2.82-0.89c-0.15,0.49-0.46,1.05-0.46,1.6
		c0,1.86,0.03,3.72,0.2,5.57c0.16,1.65-0.36,2.33-2.14,2.36c-1.69,0.02-3.37,0.03-5.05-0.01c-1.19-0.03-1.46-0.3-1.53-1.44
		c-0.14-2.38-0.31-4.77-0.33-7.16c-0.04-7.86-0.02-15.72-0.02-23.59c0-0.2,0.02-0.4,0-0.6c-0.16-2.27,0.95-3.32,3.4-3.18
		c1.05,0.06,2.11-0.02,3.16,0.03c1.74,0.09,2.2,0.56,2.23,2.2c0.03,1.53,0.03,3.07,0.02,4.6
		C362.2,388.51,362.65,389.59,363.02,391.03z"/>
	<path class="st0" d="M425.91,395.11c0.79,2.33,0.66,4.49,0.11,6.79c-0.79,0.04-1.44,0.08-2.09,0.1c-3.73,0.12-7.45,0.21-11.18,0.35
		c-1.63,0.06-2.23,0.59-2.64,2.17c-0.72,2.73,0.69,4.57,3.54,4.62c0.53,0.01,1.07,0.01,1.6,0.01c5.01-0.02,10.02-0.04,15.03-0.05
		c0.87,0,1.74-0.01,2.6,0.06c0.9,0.08,1.14,0.35,1.21,1.26c0.13,1.61-0.17,3.15-0.73,4.67c-0.28,0.76-0.73,1.06-1.4,1.18
		c-0.39,0.07-0.8,0.02-1.2,0.03c-8.55,0.01-17.1,0.01-25.65,0.02c-0.92,0-1.89,0.16-2.79-0.82c0-1.13,0.04-2.46-0.01-3.78
		c-0.06-1.59-0.24-3.17-0.27-4.75c-0.02-1.19,0.12-2.38,0.16-3.56c0.03-0.72,0.01-1.45-0.01-2.17c-0.05-1.99-0.36-4.01-0.1-5.95
		c0.24-1.8,0.21-3.57,0.2-5.36c-0.02-2.18-0.2-4.37-0.27-6.55c-0.02-0.52,0.08-1.06,0.23-1.55c0.27-0.92,0.88-1.46,1.9-1.45
		c0.53,0.01,1.07-0.02,1.6-0.02c8.42,0,16.83,0,25.25,0.01c0.33,0,0.67-0.02,1,0.01c0.97,0.08,1.56,0.52,1.61,1.43
		c0.08,1.53,0.09,3.06,0.04,4.59c-0.03,0.85-0.38,1.09-1.31,1.16c-0.53,0.04-1.07,0.01-1.6,0.01c-5.41,0-10.82-0.02-16.23,0
		c-0.85,0-1.7,0.23-2.54,0.37c-0.2,0.03-0.39,0.09-0.57,0.17c-1.02,0.44-1.66,2.53-1.31,4.33c0.32,1.62,1.14,2.18,2.76,2.36
		c3.65,0.41,7.32,0.31,10.98,0.33C424.49,395.11,425.14,395.11,425.91,395.11z"/>
	<path class="st0" d="M490.61,415.64c-0.3,0.13-0.47,0.26-0.65,0.27c-2.46,0.14-4.92,0.18-7.37,0.4c-1.97,0.18-3.5-0.55-4.86-1.83
		c-2.19-2.05-4.44-4.04-6.55-6.16c-1.66-1.66-3.57-2.46-5.89-2.38c-1.07,0.03-2.14-0.05-3.21-0.02c-1.83,0.05-2.7,0.89-2.78,2.68
		c-0.04,0.93-0.19,1.94,0.1,2.78c0.43,1.25-0.03,2.36-0.14,3.52c-0.09,0.91-0.66,1.35-1.65,1.39c-1.54,0.06-3.07,0.08-4.61,0.04
		c-1.01-0.02-1.27-0.29-1.36-1.32c-0.14-1.72-0.32-3.44-0.32-5.15c-0.04-8.66,0-17.32-0.04-25.99c-0.01-2.48,0.33-3.48,3.54-3.5
		c5.28-0.03,10.56-0.05,15.84,0.01c2.13,0.02,4.27,0.11,6.37,0.43c1.9,0.29,3.68,1.03,5.3,2.18c3.61,2.57,5.65,5.92,5.48,10.44
		c-0.02,0.47-0.05,0.93-0.02,1.4c0.16,2.69-0.88,4.88-2.74,6.78c-0.83,0.85-1.57,1.8-2.31,2.74c-0.83,1.05-0.92,1.83-0.09,2.88
		c1.1,1.41,2.29,2.77,3.57,4.02c1.23,1.2,2.65,2.21,3.94,3.36C490.39,414.83,490.45,415.27,490.61,415.64z M459.65,388.43
		c0,2.32,0.07,4.51-0.02,6.7c-0.09,1.98,1.03,3.35,3.32,3.23c1.6-0.08,3.23-0.15,4.81,0.06c2.21,0.29,4.36-0.12,6.54-0.18
		c1.23-0.03,2.47-0.46,3.66-0.85c1.4-0.46,2.15-1.51,2.2-3.01c0.02-0.47,0-0.93,0.02-1.4c0.12-2.46-1.38-4.59-4.13-5.04
		c-1.5-0.25-3.07-0.17-4.55-0.48c-3.07-0.66-6.1-0.02-9.14,0.14C461.49,387.63,460.62,388.11,459.65,388.43z"/>
	<path class="st0" d="M500.21,380.89c0.22-0.8,0.74-0.89,1.29-0.89c2.14,0.02,4.28,0.03,6.41,0.08c0.92,0.02,1.64,0.52,2.2,1.22
		c1.38,1.7,2.7,3.45,4.13,5.11c1.17,1.36,2.46,2.62,3.7,3.92c0.48,0.51,1.02,0.59,1.62,0.22c0.72-0.46,1.56-0.82,2.13-1.42
		c2.32-2.47,4.6-4.98,6.82-7.54c1.11-1.28,2.3-2.17,4.11-2c1.06,0.1,2.14-0.02,3.2,0.05c0.41,0.03,0.81,0.29,1.4,0.51
		c-0.76,1-1.34,1.87-2.01,2.66c-2.44,2.89-4.92,5.76-7.37,8.64c-1.38,1.62-2.77,3.23-4.09,4.89c-0.75,0.95-1.16,2.04-1.13,3.32
		c0.07,2.86,0.01,5.73,0.08,8.59c0.05,2.12,0.26,4.23,0.32,6.35c0.04,1.64-0.14,1.75-1.83,1.86c-1.12,0.07-2.24,0.2-3.37,0.28
		c-0.4,0.03-0.83,0.07-1.2-0.03c-1.78-0.51-2.03-0.34-2.03-2.32c0-4.26,0.03-8.52-0.02-12.78c-0.01-1.18-0.04-2.45-0.47-3.52
		c-0.48-1.2-1.34-2.27-2.18-3.29c-2.77-3.4-5.59-6.75-8.4-10.11c-0.68-0.81-1.39-1.6-2.09-2.4
		C501.02,381.8,500.58,381.31,500.21,380.89z"/>
</g>
</svg>
