<?xml version="1.0" encoding="UTF-8"?>
<svg id="Layer_1" data-name="Layer 1" xmlns="http://www.w3.org/2000/svg" xmlns:xlink="http://www.w3.org/1999/xlink" version="1.1" viewBox="0 0 96 96">
  <defs>
    <style>
      .cls-1 {
        clip-path: url(#clippath);
      }

      .cls-2 {
        fill: none;
      }

      .cls-2, .cls-3 {
        stroke-width: 0px;
      }

      .cls-4 {
        clip-path: url(#clippath-1);
      }

      .cls-5 {
        clip-path: url(#clippath-2);
      }

      .cls-3 {
        fill: #1b1c4a;
      }
    </style>
    <clipPath id="clippath">
      <rect class="cls-2" width="96" height="96"/>
    </clipPath>
    <clipPath id="clippath-1">
      <rect class="cls-2" width="96" height="96"/>
    </clipPath>
    <clipPath id="clippath-2">
      <rect class="cls-2" width="96" height="96"/>
    </clipPath>
  </defs>
  <g class="cls-1">
    <path class="cls-3" d="M48,0c-13,0-14.7.1-19.8.3-5.1.2-8.6,1-11.6,2.2-3.2,1.2-5.8,2.9-8.5,5.5-2.7,2.7-4.3,5.3-5.5,8.5-1.2,3-2,6.5-2.2,11.6-.3,5.2-.4,6.9-.4,19.9s.1,14.7.3,19.8c.2,5.1,1,8.6,2.2,11.6,1.2,3.2,2.9,5.8,5.5,8.5,2.6,2.7,5.3,4.3,8.5,5.5,3,1.2,6.5,2,11.6,2.2,5.2.3,6.9.4,19.9.4s14.7,0,19.8-.3c5.1-.2,8.6-1,11.6-2.2,3.2-1.2,5.8-2.9,8.5-5.5s4.3-5.3,5.5-8.5c1.2-3.1,2-6.5,2.2-11.6.3-5.2.4-6.9.4-19.9s0-14.7-.3-19.8c-.2-5.1-1-8.6-2.2-11.6-1.2-3.2-2.9-5.8-5.5-8.5-2.7-2.7-5.3-4.3-8.5-5.5-3.1-1.2-6.5-2-11.6-2.2-5.2-.3-6.9-.4-19.9-.4M48,8.6c12.8,0,14.3.1,19.4.3,4.7.2,7.2,1,8.9,1.6,2.2.9,3.8,1.9,5.5,3.6s2.7,3.3,3.6,5.5c.7,1.7,1.4,4.2,1.6,8.9.2,5.1.3,6.6.3,19.4s0,14.3-.3,19.4c-.2,4.7-1,7.2-1.6,8.9-.9,2.2-1.9,3.8-3.6,5.5s-3.3,2.7-5.5,3.6c-1.7.7-4.2,1.4-8.9,1.6-5.1.2-6.6.3-19.4.3s-14.3,0-19.4-.3c-4.7-.2-7.2-1-8.9-1.6-2.2-.9-3.8-1.9-5.5-3.6s-2.7-3.3-3.6-5.5c-.7-1.7-1.4-4.2-1.7-8.9-.2-5-.2-6.5-.2-19.3s.1-14.3.3-19.4c.2-4.7,1-7.2,1.7-8.9.9-2.2,1.9-3.8,3.6-5.5s3.3-2.7,5.5-3.6c1.7-.7,4.2-1.4,8.9-1.6,5-.3,6.5-.4,19.3-.4"/>
  </g>
  <g class="cls-4">
    <path class="cls-3" d="M48,64c-8.8,0-16-7.2-16-16s7.2-16,16-16,16,7.2,16,16-7.2,16-16,16M48,23.3c-13.6,0-24.7,11-24.7,24.7s11,24.7,24.7,24.7,24.7-11,24.7-24.7-11.1-24.7-24.7-24.7"/>
  </g>
  <g class="cls-5">
    <path class="cls-3" d="M79.4,22.4c0,3.2-2.6,5.8-5.8,5.8s-5.8-2.6-5.8-5.8,2.6-5.8,5.8-5.8c3.2,0,5.8,2.6,5.8,5.8"/>
  </g>
</svg>